<?xml version="1.0" encoding="UTF-8"?>
<svg xmlns="http://www.w3.org/2000/svg" xmlns:xlink="http://www.w3.org/1999/xlink" viewBox="0 0 42 42" width="42px" height="42px">
<g id="surface3963198">
<path style=" stroke:none;fill-rule:nonzero;fill:rgb(100%,100%,100%);fill-opacity:1;" d="M 21 3.5 C 11.335938 3.5 3.5 11.335938 3.5 21 C 3.5 30.664062 11.335938 38.5 21 38.5 C 30.664062 38.5 38.5 30.664062 38.5 21 C 38.5 11.335938 30.664062 3.5 21 3.5 Z M 21 7 C 28.730469 7 35 13.269531 35 21 C 35 27.886719 30.023438 33.597656 23.472656 34.769531 L 23.472656 26.3125 L 27.613281 26.3125 L 28.230469 21.542969 L 23.5 21.542969 L 23.5 18.503906 C 23.5 17.125 23.886719 16.195312 25.863281 16.195312 L 28.363281 16.195312 L 28.363281 11.9375 C 27.144531 11.816406 25.925781 11.753906 24.703125 11.757812 C 21.070312 11.757812 18.585938 13.972656 18.585938 18.039062 L 18.585938 21.550781 L 14.484375 21.550781 L 14.484375 26.320312 L 18.585938 26.320312 L 18.585938 34.777344 C 12.007812 33.632812 7 27.90625 7 21 C 7 13.269531 13.269531 7 21 7 Z M 21 7 "/>
</g>
</svg>
