<?xml version="1.0" encoding="UTF-8"?>
<svg xmlns="http://www.w3.org/2000/svg" xmlns:xlink="http://www.w3.org/1999/xlink" viewBox="0 0 48 48" width="48px" height="48px">
<g id="surface3961728">
<path style=" stroke:none;fill-rule:evenodd;fill:rgb(100%,100%,100%);fill-opacity:1;" d="M 36.757812 11.257812 C 33.371094 7.871094 28.871094 6 24.074219 6 C 14.199219 6 6.152344 14.039062 6.152344 23.917969 C 6.148438 27.074219 6.972656 30.15625 8.542969 32.875 L 6 42.164062 L 15.503906 39.667969 C 18.117188 41.097656 21.070312 41.847656 24.070312 41.851562 L 24.074219 41.851562 C 33.957031 41.851562 41.992188 33.8125 42 23.929688 C 42 19.140625 40.136719 14.640625 36.757812 11.253906 Z M 24.074219 38.824219 L 24.070312 38.824219 C 21.398438 38.824219 18.773438 38.105469 16.488281 36.75 L 15.941406 36.425781 L 10.300781 37.902344 L 11.808594 32.40625 L 11.457031 31.84375 C 9.960938 29.472656 9.175781 26.730469 9.175781 23.917969 C 9.175781 15.707031 15.863281 9.027344 24.082031 9.027344 C 28.058594 9.027344 31.796875 10.582031 34.613281 13.394531 C 37.425781 16.210938 38.96875 19.949219 38.96875 23.929688 C 38.96875 32.144531 32.285156 38.824219 24.074219 38.824219 Z M 32.242188 27.667969 C 31.796875 27.445312 29.59375 26.363281 29.183594 26.214844 C 28.773438 26.0625 28.476562 25.992188 28.175781 26.4375 C 27.878906 26.886719 27.023438 27.894531 26.757812 28.195312 C 26.5 28.488281 26.238281 28.53125 25.792969 28.308594 C 25.339844 28.085938 23.898438 27.609375 22.1875 26.078125 C 20.859375 24.894531 19.957031 23.425781 19.699219 22.980469 C 19.433594 22.53125 19.671875 22.289062 19.894531 22.066406 C 20.097656 21.867188 20.34375 21.542969 20.566406 21.28125 C 20.789062 21.023438 20.867188 20.835938 21.019531 20.539062 C 21.164062 20.238281 21.089844 19.976562 20.976562 19.753906 C 20.867188 19.53125 19.96875 17.320312 19.59375 16.425781 C 19.230469 15.550781 18.863281 15.675781 18.585938 15.65625 C 18.328125 15.644531 18.03125 15.644531 17.730469 15.644531 C 17.433594 15.644531 16.945312 15.757812 16.535156 16.207031 C 16.125 16.652344 14.96875 17.738281 14.96875 19.941406 C 14.96875 22.144531 16.574219 24.277344 16.796875 24.574219 C 17.019531 24.867188 19.957031 29.390625 24.449219 31.332031 C 25.515625 31.792969 26.347656 32.070312 27 32.273438 C 28.070312 32.613281 29.050781 32.566406 29.824219 32.457031 C 30.683594 32.328125 32.472656 31.371094 32.847656 30.324219 C 33.214844 29.28125 33.214844 28.382812 33.105469 28.195312 C 32.992188 28.007812 32.695312 27.898438 32.242188 27.667969 Z M 32.242188 27.667969 "/>
</g>
</svg>
